<svg width="20" height="20" viewBox="0 0 20 20" fill="none" xmlns="http://www.w3.org/2000/svg">
<path d="M11.666 6.6665H3.33268C2.41352 6.6665 1.66602 7.414 1.66602 8.33317V16.6665C1.66602 17.5857 2.41352 18.3332 3.33268 18.3332H11.666C12.5852 18.3332 13.3327 17.5857 13.3327 16.6665V8.33317C13.3327 7.414 12.5852 6.6665 11.666 6.6665Z" fill="black"/>
<path d="M16.666 1.6665H8.33268C7.89065 1.6665 7.46673 1.8421 7.15417 2.15466C6.84161 2.46722 6.66602 2.89114 6.66602 3.33317V4.99984H13.3327C13.7747 4.99984 14.1986 5.17543 14.5112 5.48799C14.8238 5.80055 14.9993 6.22448 14.9993 6.6665V13.3332H16.666C17.108 13.3332 17.532 13.1576 17.8445 12.845C18.1571 12.5325 18.3327 12.1085 18.3327 11.6665V3.33317C18.3327 2.89114 18.1571 2.46722 17.8445 2.15466C17.532 1.8421 17.108 1.6665 16.666 1.6665Z" fill="black"/>
</svg>
