<svg width="20" height="20" viewBox="0 0 20 20" fill="none" xmlns="http://www.w3.org/2000/svg">
<path d="M4.99935 9.99984C4.99815 11.1802 5.41459 12.323 6.17496 13.2258C6.93534 14.1286 7.9906 14.7334 9.15399 14.9329C10.3174 15.1325 11.5138 14.914 12.5316 14.3162C13.5494 13.7184 14.3229 12.7798 14.7152 11.6665H9.99935V8.33317H18.1702V11.6665H18.166C17.3935 15.4698 14.031 18.3332 9.99935 18.3332C5.39685 18.3332 1.66602 14.6023 1.66602 9.99984C1.66602 5.39734 5.39685 1.66651 9.99935 1.66651C11.3614 1.66554 12.703 1.9988 13.9063 2.63706C15.1096 3.27532 16.1379 4.19909 16.901 5.32734L14.1693 7.23984C13.5764 6.34351 12.7103 5.66211 11.6996 5.29664C10.689 4.93117 9.58743 4.90108 8.5583 5.21082C7.52917 5.52057 6.62724 6.15367 5.98619 7.01629C5.34514 7.8789 4.9991 8.92511 4.99935 9.99984Z" fill="#333333"/>
</svg>
