<svg width="98" height="34" viewBox="0 0 98 34" fill="none" xmlns="http://www.w3.org/2000/svg">
<path d="M50.3308 0.106358C51.8979 0.00929332 53.4701 0.0299456 55.0403 0C54.7504 2.62901 54.4952 5.26319 54.1889 7.89014C55.4599 7.86639 56.73 7.854 58 7.83334C57.7499 9.47312 57.514 11.115 57.2578 12.7527C55.9684 12.8064 54.6779 12.8022 53.3874 12.8167C52.975 15.3507 52.5748 17.8858 52.1695 20.4198C52.0306 21.345 51.8213 22.265 51.8367 23.2057C51.7774 24.2889 51.8479 25.4702 52.5391 26.3572C53.3844 27.4518 54.6462 28.1055 55.8632 28.6889C54.9597 30.1304 54.0347 31.5585 53.1312 33C52.3849 32.3763 51.4865 31.9849 50.683 31.447C49.4017 30.6415 48.242 29.5439 47.6284 28.1251C46.8484 26.3851 46.9045 24.4015 47.2078 22.5552C47.6682 19.3159 48.1613 16.0818 48.6034 12.8394C50.1552 12.003 51.7274 11.2017 53.2986 10.4025C52.0225 9.5929 50.7565 8.76785 49.4895 7.9459C49.7907 5.33547 50.0653 2.72091 50.3308 0.106358Z" fill="#FFFDFD"/>
<path d="M0 33.7317C1.49974 22.8222 2.96655 11.9085 4.46835 1C6.19146 3.77424 7.97015 6.5157 9.71487 9.27663C12.0082 12.8814 14.2995 16.4862 16.5939 20.0899C17.3793 13.8133 18.1987 7.54183 18.9892 1.26626C20.6588 1.23144 22.3294 1.20891 24 1.18741C22.5023 12.1215 21.0602 23.0628 19.5841 34C18.5764 32.3123 17.474 30.682 16.4292 29.0178C13.3752 24.2251 10.2903 19.4509 7.25579 14.6469C6.4385 20.9798 5.63253 27.3158 4.83891 33.6518C3.22594 33.6743 1.61194 33.6682 0 33.7317Z" fill="#FFFDFD"/>
<path d="M44 13C44.2643 11.3465 44.4568 9.68155 44.7078 8.02597C45.4729 8.01973 46.2381 8.01039 47.0032 8C48.3276 8.82156 49.6756 9.6047 51 10.4283C49.3898 11.2447 47.8134 12.1307 46.2084 12.9574C45.476 13.0125 44.7354 12.9875 44 13Z" fill="#FFFDFD"/>
<path d="M86.0622 12.9014C87.6431 12.1616 89.4234 11.8399 91.1516 12.0767C92.5332 12.2632 93.8677 12.8322 94.9557 13.7281C96.2289 14.754 97.1502 16.2011 97.6513 17.7729C97.7853 18.1858 97.863 18.6164 98 19.0293C96.4364 19.0377 94.8729 19.0586 93.3093 19.0744C92.8318 17.8536 91.9176 16.7785 90.7048 16.2986C89.2772 15.7139 87.6227 16.0345 86.3577 16.8738C83.8902 18.497 82.5424 21.6951 83.0128 24.6511C83.2429 26.0794 83.975 27.4678 85.1715 28.2788C86.1961 28.9861 87.5245 29.1737 88.7107 28.8405C90.3141 28.4266 91.6272 27.2383 92.5178 25.8446C94.0446 25.8258 95.5734 25.8373 97.1001 25.7692C95.8893 28.502 93.7603 30.8377 91.0821 32.0889C89.3294 32.9135 87.3251 33.23 85.4271 32.8234C83.836 32.4923 82.3573 31.6299 81.2641 30.4008C79.9869 28.9662 79.2343 27.0832 79.0522 25.1593C78.5614 20.1076 81.5781 14.9887 86.0622 12.9014Z" fill="#FFFDFD"/>
<path d="M66.3489 12.0982C67.649 11.882 69.0142 12.0221 70.232 12.5247C71.3786 13.0002 72.3789 13.805 73.0925 14.806C73.1647 14.3475 73.2165 13.8871 73.307 13.4316C74.538 13.4266 75.769 13.4066 77 13.3966C76.1207 19.5219 75.2811 25.6542 74.4018 31.7805C73.1403 31.7875 71.8798 31.8055 70.6193 31.8176C70.7738 30.8175 70.8887 29.8125 71.0635 28.8155C69.8081 30.0858 68.2681 31.1158 66.5369 31.6374C65.1657 32.0578 63.6724 32.1359 62.2828 31.7485C60.7509 31.3381 59.405 30.348 58.5135 29.0607C57.435 27.5201 56.9572 25.6192 57.003 23.7613C57.0376 20.4799 58.5074 17.2716 60.8617 14.9682C62.357 13.5237 64.2559 12.4105 66.3489 12.0982ZM66.7067 15.9382C65.0813 16.2475 63.6399 17.2305 62.6254 18.4998C61.5052 19.8933 60.8373 21.6721 60.9156 23.4589C60.9756 24.7363 61.4604 26.0296 62.4119 26.9235C63.2993 27.7904 64.5862 28.2068 65.8244 28.1067C67.6165 27.9776 69.2511 26.9686 70.3784 25.6252C71.2333 24.5871 71.9133 23.3448 72.0455 21.9964C72.1136 21.4839 72.2437 20.9734 72.2051 20.4528C72.1329 18.8892 71.3492 17.3026 69.9586 16.4817C68.999 15.8831 67.8106 15.759 66.7067 15.9382Z" fill="#FFFDFD"/>
<path d="M29.8868 14.324C31.3822 13.4723 33.089 12.9641 34.8119 13.002C36.8257 12.9795 38.8465 13.7545 40.3178 15.1573C41.5275 16.2892 42.3638 17.8075 42.7411 19.4292C43.1266 21.0273 43.0652 22.7113 42.6657 24.2991C40.3148 24.3789 37.9619 24.3789 35.61 24.4086C33.6355 24.4832 31.658 24.4648 29.6815 24.5036C29.1652 24.5272 28.6439 24.473 28.1317 24.5589C28.3299 25.9719 28.8754 27.3931 29.9582 28.3491C30.9103 29.2182 32.2578 29.6262 33.5218 29.3951C34.6288 29.2335 35.6191 28.6354 36.4584 27.9074C38.0162 27.8348 39.5852 27.8614 41.1481 27.8236C40.2594 29.1691 39.1293 30.3583 37.7928 31.2488C36.1444 32.3592 34.1799 33.0392 32.1893 32.9983C30.2481 33.0228 28.3017 32.3009 26.8455 30.9932C25.6369 29.9227 24.7694 28.4728 24.3437 26.9054C23.8747 25.2194 23.9039 23.4127 24.3205 21.7195C25.0813 18.6224 27.1494 15.8894 29.8868 14.324ZM31.4245 17.4129C30.075 18.3004 29.1018 19.694 28.5584 21.2175C31.973 21.1786 35.3856 21.0917 38.8012 21.0753C38.6372 20.1439 38.3181 19.2267 37.7636 18.4599C37.0944 17.5039 36.0639 16.7912 34.9146 16.6072C33.7049 16.3802 32.444 16.7452 31.4245 17.4129Z" fill="#FFFDFD"/>
</svg>
