<svg width="20" height="20" viewBox="0 0 20 20" fill="none" xmlns="http://www.w3.org/2000/svg">
<path d="M7.08268 3.12501V4.70584C7.08268 5.08917 7.39518 5.40417 7.78602 5.40417H12.2127C12.3047 5.40461 12.396 5.38689 12.4812 5.35201C12.5664 5.31713 12.6439 5.26579 12.7092 5.20092C12.7746 5.13605 12.8265 5.05893 12.8619 4.97398C12.8974 4.88902 12.9158 4.79791 12.916 4.70584V3.18084C12.7604 3.14406 12.601 3.12532 12.441 3.12501H7.08268ZM14.4268 18.125H5.57268C5.14225 18.1259 4.71587 18.0419 4.31792 17.8779C3.91998 17.7138 3.55827 17.473 3.25348 17.169C2.9487 16.8651 2.70681 16.5041 2.54166 16.1066C2.37652 15.7091 2.29134 15.2829 2.29102 14.8525V5.14667C2.29145 4.71631 2.37671 4.29026 2.5419 3.89287C2.7071 3.49548 2.949 3.13454 3.25378 2.83069C3.55855 2.52685 3.92022 2.28605 4.31812 2.12207C4.71601 1.95808 5.14232 1.87413 5.57268 1.87501H12.441C13.3103 1.8757 14.144 2.2202 14.7602 2.83334L16.746 4.81167C17.0506 5.11502 17.2924 5.47552 17.4574 5.87249C17.6225 6.26946 17.7075 6.6951 17.7077 7.12501V14.8517C17.7074 15.282 17.6222 15.7081 17.4571 16.1055C17.292 16.503 17.0502 16.864 16.7455 17.1679C16.4408 17.4718 16.0792 17.7127 15.6814 17.8768C15.2835 18.0409 14.8572 18.1258 14.4268 18.125ZM12.916 16.8742V13.5283C12.9158 13.4363 12.8974 13.3452 12.8619 13.2602C12.8265 13.1753 12.7746 13.0981 12.7092 13.0333C12.6439 12.9684 12.5664 12.9171 12.4812 12.8822C12.396 12.8473 12.3047 12.8296 12.2127 12.83H7.78602C7.69395 12.8296 7.6027 12.8473 7.5175 12.8822C7.43229 12.9171 7.35481 12.9684 7.28947 13.0333C7.22414 13.0981 7.17225 13.1753 7.13676 13.2602C7.10128 13.3452 7.0829 13.4363 7.08268 13.5283V16.8742H12.916Z" fill="#333333"/>
</svg>
