<svg width="54" height="19" viewBox="0 0 54 19" fill="none" xmlns="http://www.w3.org/2000/svg">
<path d="M27.7084 0.50827C28.5425 0.456607 29.3793 0.467599 30.2151 0.45166C30.0608 1.85097 29.9249 3.25304 29.7619 4.65125C30.4384 4.63861 31.1144 4.63201 31.7904 4.62102C31.6573 5.4938 31.5317 6.36769 31.3953 7.23937C30.709 7.26795 30.0222 7.26576 29.3353 7.27345C29.1158 8.6222 28.9028 9.9715 28.687 11.3202C28.6131 11.8127 28.5017 12.3024 28.5099 12.8031C28.4784 13.3796 28.5159 14.0084 28.8838 14.4805C29.3337 15.0631 30.0053 15.411 30.6531 15.7215C30.1721 16.4888 29.6798 17.2489 29.1989 18.0162C28.8017 17.6842 28.3235 17.4759 27.8959 17.1896C27.2139 16.7609 26.5966 16.1766 26.27 15.4215C25.8549 14.4954 25.8847 13.4396 26.0461 12.4568C26.2912 10.7327 26.5537 9.01132 26.789 7.28554C27.6149 6.84035 28.4518 6.41386 29.288 5.98846C28.6088 5.55756 27.935 5.11842 27.2606 4.68093C27.4209 3.29151 27.5671 1.89989 27.7084 0.50827Z" fill="#003CAA"/>
<path d="M0.918945 18.4056C1.7172 12.5989 2.49791 6.79003 3.29726 0.983887C4.2144 2.4605 5.16112 3.91966 6.08976 5.38919C7.31042 7.30785 8.52999 9.22652 9.75119 11.1446C10.1692 7.80387 10.6053 4.46583 11.0261 1.12561C11.9147 1.10707 12.8039 1.09508 13.6931 1.08364C12.896 6.90341 12.1284 12.727 11.3428 18.5484C10.8064 17.6501 10.2196 16.7824 9.66354 15.8966C8.038 13.3457 6.39603 10.8045 4.7809 8.24756C4.34589 11.6183 3.9169 14.9907 3.49449 18.3631C2.63598 18.3751 1.77691 18.3718 0.918945 18.4056Z" fill="#003CAA"/>
<path d="M24.3379 7.37101C24.4785 6.49091 24.581 5.60474 24.7146 4.72354C25.1219 4.72022 25.5291 4.71525 25.9364 4.70972C26.6413 5.147 27.3588 5.56383 28.0637 6.00222C27.2067 6.43674 26.3676 6.90829 25.5133 7.34834C25.1235 7.37764 24.7293 7.36437 24.3379 7.37101Z" fill="#003CAA"/>
<path d="M46.7267 7.31851C47.5681 6.92475 48.5157 6.75352 49.4356 6.87957C50.1709 6.97885 50.8812 7.2817 51.4603 7.75856C52.138 8.30459 52.6284 9.07482 52.8951 9.91142C52.9664 10.1312 53.0077 10.3604 53.0807 10.5802C52.2485 10.5846 51.4162 10.5958 50.584 10.6041C50.3299 9.95437 49.8433 9.38213 49.1977 9.12669C48.4379 8.81547 47.5572 8.98614 46.884 9.43289C45.5706 10.2968 44.8532 11.999 45.1036 13.5724C45.2261 14.3326 45.6158 15.0716 46.2526 15.5033C46.798 15.8798 47.505 15.9796 48.1364 15.8022C48.9898 15.5819 49.6887 14.9495 50.1628 14.2077C50.9754 14.1976 51.7891 14.2038 52.6017 14.1675C51.9573 15.6221 50.8241 16.8653 49.3986 17.5312C48.4657 17.9701 47.3989 18.1386 46.3887 17.9222C45.5418 17.7459 44.7547 17.2869 44.1729 16.6327C43.4931 15.8692 43.0925 14.8669 42.9956 13.8429C42.7343 11.1541 44.34 8.42952 46.7267 7.31851Z" fill="#003CAA"/>
<path d="M36.2338 6.89103C36.9258 6.77594 37.6525 6.85053 38.3006 7.118C38.911 7.37109 39.4434 7.79946 39.8232 8.33227C39.8616 8.08824 39.8892 7.84315 39.9373 7.60073C40.5925 7.59806 41.2478 7.58741 41.903 7.58208C41.435 10.8423 40.9881 14.1063 40.52 17.3671C39.8486 17.3708 39.1777 17.3804 38.5068 17.3868C38.589 16.8545 38.6502 16.3196 38.7432 15.7889C38.075 16.465 37.2553 17.0133 36.3339 17.2909C35.604 17.5147 34.8092 17.5562 34.0696 17.35C33.2543 17.1316 32.5379 16.6046 32.0634 15.9195C31.4894 15.0995 31.2351 14.0877 31.2594 13.0988C31.2778 11.3522 32.0602 9.64458 33.3132 8.41859C34.1091 7.64975 35.1198 7.05726 36.2338 6.89103ZM36.4243 8.93488C35.5591 9.09951 34.7919 9.62273 34.252 10.2983C33.6557 11.04 33.3003 11.9868 33.3419 12.9379C33.3738 13.6177 33.6319 14.3061 34.1383 14.7819C34.6107 15.2433 35.2956 15.465 35.9546 15.4117C36.9085 15.343 37.7785 14.8059 38.3786 14.0909C38.8336 13.5383 39.1956 12.8771 39.2659 12.1594C39.3021 11.8866 39.3714 11.6149 39.3508 11.3378C39.3124 10.5056 38.8953 9.66109 38.1551 9.22419C37.6444 8.90557 37.0119 8.8395 36.4243 8.93488Z" fill="#003CAA"/>
<path d="M16.8266 8.07569C17.6226 7.62236 18.5311 7.35189 19.4481 7.37202C20.5199 7.36005 21.5955 7.77256 22.3786 8.51922C23.0225 9.12167 23.4676 9.92982 23.6685 10.7929C23.8736 11.6436 23.841 12.5399 23.6283 13.385C22.377 13.4275 21.1247 13.4275 19.8729 13.4433C18.8219 13.483 17.7694 13.4732 16.7174 13.4939C16.4426 13.5064 16.1651 13.4776 15.8925 13.5233C15.998 14.2754 16.2883 15.0318 16.8647 15.5407C17.3714 16.0032 18.0886 16.2204 18.7614 16.0974C19.3506 16.0114 19.8777 15.693 20.3244 15.3056C21.1536 15.2669 21.9887 15.2811 22.8206 15.2609C22.3476 15.9771 21.746 16.61 21.0347 17.0841C20.1573 17.6751 19.1117 18.037 18.0522 18.0152C17.0189 18.0283 15.983 17.644 15.2079 16.948C14.5646 16.3782 14.1029 15.6065 13.8763 14.7722C13.6267 13.8748 13.6422 12.9132 13.864 12.012C14.2689 10.3636 15.3697 8.90888 16.8266 8.07569ZM17.6451 9.71976C16.9268 10.1921 16.4088 10.9339 16.1196 11.7448C17.937 11.7241 19.7534 11.6778 21.5714 11.6691C21.4841 11.1734 21.3143 10.6852 21.0192 10.277C20.663 9.76819 20.1145 9.38888 19.5027 9.29092C18.8589 9.1701 18.1877 9.36439 17.6451 9.71976Z" fill="#003CAA"/>
</svg>
