<svg width="24" height="24" viewBox="0 0 24 24" fill="none" xmlns="http://www.w3.org/2000/svg">
<path d="M10 2C7.87827 2 5.84344 2.84285 4.34315 4.34315C2.84285 5.84344 2 7.87827 2 10C2 12.1217 2.84285 14.1566 4.34315 15.6569C5.84344 17.1571 7.87827 18 10 18C12.1217 18 14.1566 17.1571 15.6569 15.6569C17.1571 14.1566 18 12.1217 18 10C18 7.87827 17.1571 5.84344 15.6569 4.34315C14.1566 2.84285 12.1217 2 10 2Z" fill="#003CAA"/>
<path fill-rule="evenodd" clip-rule="evenodd" d="M21.7074 21.707C21.5199 21.8945 21.2656 21.9998 21.0004 21.9998C20.7352 21.9998 20.4809 21.8945 20.2934 21.707L16.7934 18.207C16.6112 18.0184 16.5105 17.7658 16.5127 17.5036C16.515 17.2414 16.6202 16.9906 16.8056 16.8052C16.991 16.6198 17.2418 16.5146 17.504 16.5123C17.7662 16.51 18.0188 16.6108 18.2074 16.793L21.7074 20.293C21.8949 20.4805 22.0002 20.7348 22.0002 21C22.0002 21.2651 21.8949 21.5195 21.7074 21.707Z" fill="#003CAA"/>
</svg>
